<svg xmlns="http://www.w3.org/2000/svg" viewBox="0 0 233.63 137"><defs><style>.cls-1{fill:#f32735;}</style></defs><title>Asset 1</title><g id="Layer_2" data-name="Layer 2"><g id="Capa_1" data-name="Capa 1"><path class="cls-1" d="M109.86,24.68c6.17,0,10.77,2.77,10.33,8.25-.38,6-6.24,10.2-13,10.2a16.78,16.78,0,0,1-3.59-.38c-.44-.06-.82.26-.7.89a7,7,0,0,0,7.18,5.47c4.35,0,9.51-2.89,11.9-5.41,1.13-1.13,2-1.64,2.77-1.64,1.7,0,2.14,2.71.69,4.66-2.77,4.72-8.87,8.81-17.18,8.81-10.27,0-15.3-6.17-13.86-15.42S102,24.68,109.86,24.68Zm-5.47,12.41c4.34-.13,6.92-1,7.36-3,.51-2.2-1.26-3.53-3.59-3s-3.59,2.33-4.4,5.1A.59.59,0,0,0,104.39,37.09Z"/><path class="cls-1" d="M131.64,44.52c-.44,2.7.13,3.84,1.89,4s4.35-1.14,5.61-3A25.42,25.42,0,0,1,141,42.88a2.72,2.72,0,0,1,2.14-.94,2,2,0,0,1,2.21,1.51,8.07,8.07,0,0,1-1.89,6c-3,3.78-6.49,6-11.71,6-4.66,0-9.89-2.39-8.75-9.25,2-12.28,2.14-13.66,4-25.62.06-.38-.19-1.77-.19-2.9-.07-2.2,1.76-3.4,4.59-3.65,5.73-.57,4.16,6,3.47,10.26Z"/><path class="cls-1" d="M227,78.8h0l.13-.1a.83.83,0,0,0,.13-1.17.81.81,0,0,0-.48-.29h0l.09-.06a.84.84,0,1,0-1-1.31l-.17.13.07-.21a.78.78,0,0,0-.17-.37.85.85,0,0,0-1.18-.14l-1.44,1.15-.77.63c-.43.35-.9.74-1.39,1.07.36-.86.41-1.44,0-1.65s-1,0-1.54.9a5,5,0,0,1-4.68,3.07l-2.73.19s-2-.06-1.46,1.06,3.31,4.34,7,3.77a20.09,20.09,0,0,0,7.15-3.26l1-.81L227,80.15a.84.84,0,0,0,.13-1.18A.82.82,0,0,0,227,78.8Z"/><path class="cls-1" d="M4.52,95.75c4.47-7.56,6.9-14.27,10-20.44,1.05-2.17-1-4.43.73-6.71,1.42-1.9,4.62-2.39,7.42-2.3,2,.07,4.8,1,5.19,3.16,1.82,9.66,3.56,19.39,5.53,29a5.74,5.74,0,0,1-6.45,7c-3.74-.59-2.92-3.78-2.76-6,.06-.72-.52-1.25-1.51-1.19L13.59,99a2.75,2.75,0,0,0-2.17,1.51C10,102.71,7.67,105.42,5,105.47c-3.86.08-5.69-1.59-4.73-4.4C1,98.92,3.54,97.32,4.52,95.75Zm12.16-3.16,5.92-.52a1,1,0,0,0,1-1.06c-.52-3.28-1.11-6.83-1.84-10.18-.06-.33-.46-.27-.65.13-1.52,3.48-2.9,6.57-4.87,10.78C16,92.2,16,92.66,16.68,92.59Z"/><path class="cls-1" d="M36.46,97.65c1.64-10.19.72-4.53,2.7-17,.06-.39-.12-1.86-.13-3,0-2.27,1.84-3.87,4.73-3.82,3.67.08,4.76,1.75,4.79,3.62,0,.32,0,.92.4.92a1.6,1.6,0,0,0,.72-.33c1.84-1.31,4.94-3.89,9.33-4.34,2.69-.27,4.21,1.19,5.2,3.49.26.65.59,1,1,1a1.94,1.94,0,0,0,1.18-.59c2.7-2.17,6.45-3.94,9.73-3.88,4.13.08,5.6,4.56,3.88,11.83-1.43,6-2.22,8.31-2.57,9.86C77,97.56,77.41,99,79.25,99.1s5.19-1.71,6.5-3.62c.53-.72.73-2,1.78-3.28a2.88,2.88,0,0,1,2.36-1,2.83,2.83,0,0,1,2.7,1.51c.79,2.17-1,5.13-2.37,6.84a15.39,15.39,0,0,1-12.88,6.31c-6.83,0-10.1-3.5-8.81-9.34.67-3,1.58-6.11,2.17-8,1.25-3.75,1-6.37-1.31-6.25-2.69.14-5.47,4.51-6.44,7.63a48.48,48.48,0,0,0-1.84,7.69c-.13.79.79,2.43.85,3.22.26,3.15-2.17,4.53-4.6,4.53-2,0-4.14-.92-4.73-2.56-1.38-3.62,1.31-11.78,2.1-14.26,1.24-3.87,1.18-6.38-1.18-6.25-3.41.2-6.51,4.67-7.36,9.86l-1,6.44c-.33,1.91,0,3.62-1,4.93a6.52,6.52,0,0,1-4.67,1.71c-2.43,0-4.67-1.18-3.88-4.4C35.74,100.08,36.33,98.44,36.46,97.65Z"/><path class="cls-1" d="M103.69,102.52a2.92,2.92,0,0,0-1.64.72c-1.52,1.05-2.9,2.63-7.5,2.63-6.24,0-11.55-4.81-9.79-15.84s8.68-16.37,15-16.37c4.73,0,5,2.76,6.11,2.76.92,0,2.5-3,5.72-3,2.23,0,3.78,1.15,3.87,2.63.15,2.32-1.57,4.14-2,6.7l-1.9,12.1c-.4,2.49.2,3.54,2,3.74s4-1.18,5.33-3.09a26.2,26.2,0,0,1,1.9-2.82,2.81,2.81,0,0,1,2.24-1,2.1,2.1,0,0,1,2.3,1.58,8.47,8.47,0,0,1-2,6.31c-3.09,3.94-6.77,6.31-12,6.31a7.89,7.89,0,0,1-6.57-2.76A1.46,1.46,0,0,0,103.69,102.52Zm.53-16.76c.59-3.82-1.32-5.46-3.36-5.46-3.87,0-6.28,3.38-7.29,9.66s.72,9.27,3.74,9.27c1.91,0,5.13-2.5,5.79-6.64C103.54,89.86,103.77,88.49,104.22,85.76Z"/><path class="cls-1" d="M119,98.24c1.64-10.38.66-4.33,2.63-16.82.26-1.58.17-3,.39-4.27a4.05,4.05,0,0,1,4.34-3.36c3.22,0,4.53,1.25,4.86,3.29.07.59.33.86.73.86a1.61,1.61,0,0,0,.92-.4c2.49-2,5.33-3.76,9.39-3.88,4.92-.14,7.39,4.71,5.72,11.83-1.41,6-2.24,8.29-2.56,9.8-.47,2.22.26,3.15,2.1,3.28s4-1.18,5.33-3.09a26.2,26.2,0,0,1,1.9-2.82,2.81,2.81,0,0,1,2.24-1,2.1,2.1,0,0,1,2.3,1.58,8.44,8.44,0,0,1-2,6.31c-3.08,3.94-6.77,6.31-12,6.31-6.77,0-10.2-3-9.07-8.28.71-3.35,2-6.92,2.43-9.07.69-3.66.52-6.38-1.84-6.25-3.41.2-7.56,6.9-8,9.86l-1,6.25c-.26,1.9,1.45,2.76.33,5.71-.59,1.45-2.83,2.3-4.93,2.3a5.78,5.78,0,0,1-2.7-.59C117.36,104.09,118.54,100.94,119,98.24Zm21.95-34c1.18,0,1.77-.79,3.29-1.25a4.77,4.77,0,0,1,1.51-.27c1.18,0,1.91.67,1.71,2.37-.38,3.07-4.28,5.85-7.3,5.85a7.19,7.19,0,0,1-3.48-1,7.36,7.36,0,0,0-3.22-1.19c-1.12,0-1.71.79-3.22,1.25a4.94,4.94,0,0,1-1.58.27c-1.18,0-1.84-.71-1.64-2.37.35-3,4.33-5.85,7.23-5.85a7.22,7.22,0,0,1,3.54,1A7.2,7.2,0,0,0,141,64.27Z"/><path class="cls-1" d="M171.64,102.52a3,3,0,0,0-1.65.72c-1.51,1.05-2.89,2.63-7.49,2.63-6.24,0-11.55-4.81-9.79-15.84s8.67-16.37,15-16.37c4.74,0,5,2.76,6.12,2.76.92,0,2.49-3,5.71-3,2.24,0,3.79,1.15,3.88,2.63.15,2.32-1.58,4.14-2,6.7-.76,4.84-1.14,7.26-1.91,12.1-.39,2.49.21,3.54,2,3.74s4-1.18,5.33-3.09a26.2,26.2,0,0,1,1.9-2.82,2.81,2.81,0,0,1,2.24-1,2.1,2.1,0,0,1,2.3,1.58,8.44,8.44,0,0,1-2,6.31c-3.08,3.94-6.76,6.31-12,6.31a7.92,7.92,0,0,1-6.58-2.76A1.43,1.43,0,0,0,171.64,102.52Zm.52-16.76c.59-3.82-1.31-5.46-3.35-5.46-3.88,0-6.29,3.38-7.29,9.66s.72,9.27,3.74,9.27c1.91,0,5.13-2.5,5.79-6.64C171.49,89.86,171.72,88.49,172.16,85.76Z"/><path class="cls-1" d="M203.25,73.66c4.6,0,8.08,1.84,10.05,5a1.84,1.84,0,0,0,2.1,1.12,18.69,18.69,0,0,0,6-1.91,2.57,2.57,0,0,1,1.25-.39c1.12,0,1.84,1,1.19,2.56-1.58,3.48-4.67,4.86-7.56,5.39a1.11,1.11,0,0,0-1,1,24.65,24.65,0,0,1-.26,3.35c-1.51,9.67-8.28,16.11-16.89,16.11s-13.37-6.48-11.83-16.11S194.57,73.66,203.25,73.66Zm-4,25.5c3.28,0,6.11-3.81,7-9.46a15.77,15.77,0,0,0,.27-3.62c0-.82-.33-1.24-.79-1.38A12.84,12.84,0,0,1,200,81c-2.37,1.25-4.18,4.5-4.86,8.74C194.2,95.29,195.88,99.16,199.24,99.16Z"/><path class="cls-1" d="M228.84,73.56c5.53-6.79,7.1-15.83.23-22.32-10.28-9.71-27.95-11.34-41.23-12.41-11.37-.91-22.85-.91-34.24-.73-3.09,0-5.08,6.23-1.7,6.18,20.61-.31,43.44-1.2,63,6.24,8.68,3.29,18.06,10,10.5,19.35-2.34,2.88.7,7,3.4,3.69Z"/><path class="cls-1" d="M22.8,61c-.06.95.63-.29,1.44-.89a19.68,19.68,0,0,1,4.29-2.24A86.55,86.55,0,0,1,41.32,54c13.15-3.19,26.61-5.1,40-6.74,3.17-.39,1.73-6.74-1.52-6.34-15.14,1.85-30.5,3.92-45.21,8.1-5.75,1.64-16.31,4-16.8,11.42-.25,3.74,4.71,4.81,5,.59Z"/><path class="cls-1" d="M96.58,17c.29-1.35,3.08-3.16,4.38-4A37.9,37.9,0,0,1,111.4,8.38a44.72,44.72,0,0,1,30.78,2.49c3.58,1.62,4.07-5,1.14-6.33a48.92,48.92,0,0,0-35.6-2.15C102,4.28,92.92,8,91.48,14.65c-.74,3.46,4.16,6.68,5.1,2.32Z"/><path class="cls-1" d="M28.55,133.27a4.18,4.18,0,0,1-1.24-2.61l1.57-.51a2.41,2.41,0,0,0,2.29,2.46c1.26,0,2-.85,2-2.34v-6.54h1.76v6.57c0,2.44-1.45,4-3.77,4A3.6,3.6,0,0,1,28.55,133.27Z"/><path class="cls-1" d="M41.57,126.84h1.64v7.26h-1.4l-.24-1.2h0a2.31,2.31,0,0,1-2.28,1.36,2.58,2.58,0,0,1-2.68-2.78v-4.64h1.64v4.07a1.62,1.62,0,0,0,1.6,1.83,1.8,1.8,0,0,0,1.76-2Z"/><path class="cls-1" d="M46,131.76c.06.73.75,1.2,1.7,1.2s1.41-.37,1.41-.94c0-.39-.28-.63-.79-.73L47,131c-1.46-.32-2.19-1-2.19-2.11,0-1.34,1.17-2.24,2.93-2.26a2.86,2.86,0,0,1,2.83,1.92l-1.41.42a1.38,1.38,0,0,0-1.46-1c-.76,0-1.23.37-1.23.91s.31.71,1,.82l1.36.27c1.34.27,2,.93,2,2a2,2,0,0,1-.83,1.69,3.42,3.42,0,0,1-2.18.63,3.57,3.57,0,0,1-2.15-.62,2.36,2.36,0,0,1-1-1.65Z"/><path class="cls-1" d="M56.82,128.27H54.65v3.61c0,.49.28.74.84.74h1.33v1.48H55.18A2,2,0,0,1,53,132v-3.69H51.34v-1.43H53v-2.28h1.66v2.28h2.17Z"/><path class="cls-1" d="M58.9,133.21a3.81,3.81,0,0,1,2.75-6.56,3.65,3.65,0,0,1,2.73,1,4.17,4.17,0,0,1,0,5.51,3.64,3.64,0,0,1-2.73,1A3.69,3.69,0,0,1,58.9,133.21Zm2.75-5a2.29,2.29,0,1,0,2.1,2.29A2.1,2.1,0,0,0,61.65,128.17Z"/><path class="cls-1" d="M76.6,131H71.1a2,2,0,0,0,2.12,1.85,1.91,1.91,0,0,0,1.9-1.2l1.29.56a3.4,3.4,0,0,1-3.21,2,3.59,3.59,0,0,1-2.68-1,3.89,3.89,0,0,1-1-2.77,3.79,3.79,0,0,1,1-2.75,3.43,3.43,0,0,1,2.6-1,3.31,3.31,0,0,1,2.53,1,3.77,3.77,0,0,1,1,2.69Zm-5.51-1H75a1.85,1.85,0,0,0-2-1.92A2,2,0,0,0,71.09,130Z"/><path class="cls-1" d="M84.8,129.46v4.64H83.16V130a1.63,1.63,0,0,0-1.6-1.83,1.77,1.77,0,0,0-1.76,2v3.89H78.16v-7.26h1.4l.24,1.2h0a2.33,2.33,0,0,1,2.29-1.38A2.59,2.59,0,0,1,84.8,129.46Z"/><path class="cls-1" d="M94,128.27H91.86v3.61c0,.49.28.74.84.74H94v1.48H92.39A2,2,0,0,1,90.2,132v-3.69H88.54v-1.43H90.2v-2.28h1.66v2.28H94Z"/><path class="cls-1" d="M100.38,126.84H102v7.26h-1.41l-.23-1.2h0a2.31,2.31,0,0,1-2.28,1.36,2.57,2.57,0,0,1-2.67-2.78v-4.64H97v4.07a1.62,1.62,0,0,0,1.6,1.83,1.8,1.8,0,0,0,1.76-2Z"/><path class="cls-1" d="M107.61,131.76c.06.73.76,1.2,1.7,1.2s1.41-.37,1.41-.94c0-.39-.28-.63-.79-.73l-1.36-.26c-1.46-.32-2.19-1-2.19-2.11,0-1.34,1.17-2.24,2.93-2.26a2.86,2.86,0,0,1,2.83,1.92l-1.41.42a1.38,1.38,0,0,0-1.46-1c-.76,0-1.23.37-1.23.91s.31.71.95.82l1.36.27c1.34.27,2,.93,2,2a2.06,2.06,0,0,1-.82,1.69,3.47,3.47,0,0,1-2.19.63,3.57,3.57,0,0,1-2.15-.62,2.4,2.4,0,0,1-1-1.65Z"/><path class="cls-1" d="M113.8,125.15v-1.86h1.76v1.86Zm0,8.95v-7.26h1.65v7.26Z"/><path class="cls-1" d="M122.08,128.27H119.9v3.61c0,.49.29.74.85.74h1.33v1.48h-1.64a2,2,0,0,1-2.19-2.14v-3.69h-1.66v-1.43h1.66v-2.28h1.65v2.28h2.18Z"/><path class="cls-1" d="M123.51,125.15v-1.86h1.76v1.86Zm.06,8.95v-7.26h1.65v7.26Z"/><path class="cls-1" d="M127.88,133.21a3.89,3.89,0,0,1,5.49-5.51,4.2,4.2,0,0,1,0,5.51,4.14,4.14,0,0,1-5.49,0Zm2.75-5a2.29,2.29,0,0,0,0,4.56,2.29,2.29,0,0,0,0-4.56Z"/><path class="cls-1" d="M144.11,123.29h1.65V134.1h-1.42l-.23-1.2h0a2.31,2.31,0,0,1-2.28,1.36,3,3,0,0,1-2.4-1,4.12,4.12,0,0,1-.9-2.77,4.07,4.07,0,0,1,.9-2.75,3.06,3.06,0,0,1,2.4-1,2.32,2.32,0,0,1,2.28,1.36h0Zm-2,4.88a2,2,0,0,0-2,2.29,2.06,2.06,0,0,0,2,2.32c1.19,0,2-.91,2-2.32A2,2,0,0,0,142.15,128.17Z"/><path class="cls-1" d="M154.42,131h-5.5a2,2,0,0,0,2.11,1.85,1.92,1.92,0,0,0,1.91-1.2l1.29.56a3.41,3.41,0,0,1-3.21,2,3.59,3.59,0,0,1-2.68-1,4.31,4.31,0,0,1,0-5.52,3.47,3.47,0,0,1,2.61-1,3.31,3.31,0,0,1,2.53,1,3.81,3.81,0,0,1,1,2.69Zm-5.52-1h3.95a1.86,1.86,0,0,0-2-1.92A2,2,0,0,0,148.9,130Z"/><path class="cls-1" d="M163.46,128.27h-2.18v3.61c0,.49.28.74.85.74h1.33v1.48h-1.64a2,2,0,0,1-2.19-2.14v-3.69H158v-1.43h1.66v-2.28h1.65v2.28h2.18Z"/><path class="cls-1" d="M169.32,126.84v1.64h-1.11c-1,0-1.68.86-1.68,2.16v3.46h-1.64v-7.26h1.41l.23,1.33h0a1.81,1.81,0,0,1,1.82-1.33Z"/><path class="cls-1" d="M177.14,132.71v1.39h-.87a1.28,1.28,0,0,1-1.41-.93,2.76,2.76,0,0,1-2.42,1.09c-1.54,0-2.47-.78-2.47-2.1,0-1.08.83-1.82,2.19-2l2.07-.32a.58.58,0,0,0,.56-.62v0c0-.69-.55-1.14-1.38-1.14a1.57,1.57,0,0,0-1.68,1.32l-1.45-.36a3,3,0,0,1,3.15-2.32c1.89,0,3,1,3,2.58v3c0,.28.11.43.35.43Zm-2.35-1.54v-.38l-2.07.31c-.7.1-1.1.47-1.1,1s.51,1,1.29,1A1.77,1.77,0,0,0,174.79,131.17Z"/><path class="cls-1" d="M184.77,127.71a4,4,0,0,1,.92,2.75,4.08,4.08,0,0,1-.92,2.77,3.05,3.05,0,0,1-2.41,1,2.32,2.32,0,0,1-2.27-1.36h0l-.24,1.2h-1.41V123.29h1.65V128h0a2.34,2.34,0,0,1,2.27-1.36A3.07,3.07,0,0,1,184.77,127.71ZM182,132.78a2.06,2.06,0,0,0,2-2.32,2,2,0,1,0-3.95,0C180.06,131.87,180.84,132.78,182,132.78Z"/><path class="cls-1" d="M194,132.71v1.39h-.87a1.28,1.28,0,0,1-1.41-.93,2.76,2.76,0,0,1-2.42,1.09c-1.54,0-2.47-.78-2.47-2.1,0-1.08.83-1.82,2.19-2l2.07-.32a.58.58,0,0,0,.56-.62v0c0-.69-.55-1.14-1.38-1.14a1.57,1.57,0,0,0-1.68,1.32L187.1,129a3,3,0,0,1,3.15-2.32c1.89,0,3,1,3,2.58v3c0,.28.11.43.35.43Zm-2.35-1.54v-.38l-2.07.31c-.7.1-1.1.47-1.1,1s.51,1,1.29,1A1.77,1.77,0,0,0,191.61,131.17Z"/><path class="cls-1" d="M193.43,137v-1.48h1.26c.46,0,.68-.22.68-.66v-8H197v8a2,2,0,0,1-2.18,2.14Zm1.88-11.85v-1.86h1.77v1.86Z"/><path class="cls-1" d="M199.6,133.21a3.89,3.89,0,0,1,5.49-5.51,4.2,4.2,0,0,1,0,5.51,4.14,4.14,0,0,1-5.49,0Zm2.75-5a2.29,2.29,0,1,0,2.1,2.29A2.09,2.09,0,0,0,202.35,128.17Z"/></g></g></svg>