<svg xmlns="http://www.w3.org/2000/svg" xmlns:xlink="http://www.w3.org/1999/xlink" viewBox="0 0 1408.18 841.87"><defs><style>.cls-1{fill:none;}.cls-2{fill:#f32735;}.cls-3{clip-path:url(#clip-path);}</style><clipPath id="clip-path"><rect class="cls-1" x="325.08" y="0.05" width="624.61" height="792.3"/></clipPath></defs><title>Asset 5</title><g id="Layer_2" data-name="Layer 2"><g id="Capa_1" data-name="Capa 1"><rect class="cls-2" x="280.06" y="49.57" width="624.61" height="792.3"/><g class="cls-3"><g id="_1bD1OO" data-name="1bD1OO"><image id="_1bD1OO-2" data-name="1bD1OO" width="2048" height="1152" transform="scale(0.69)" xlink:href="../../../../../../Elamanao_P%C2%A0ginaweb_Carpeta/Links/IMG_8007.jpg"/></g></g><path class="cls-2" d="M496.23,743.61c3.45,1.83,6.8,1.6,10.35.1,2.41-1,4.59-2.75,7.2-3.14s5.19.66,7.68,1.65c3.5,1.37,7.06,2.75,10.88,2,4.48-.9,7.57-5.75,12-6.12,4-.33,8,3.34,11.43,4.9a14.4,14.4,0,0,0,10.09,1c3.22-.92,6-2.85,8.81-4.57a17.59,17.59,0,0,1,5-2.48c3.24-.71,5,1.48,7.23,3.35a16.41,16.41,0,0,0,20.37,1c1.83-1.3,3.44-3.26,5.58-4.06,2.64-1,4.72-.08,7.07,1.15,3.47,1.81,6.75,4.19,10.75,4.62,3.57.39,6.66-.87,9.78-2.48,1.8-.93,3.63-2.3,5.6-2.84,3.42-1,5.41,1,8.17,2.55a21.69,21.69,0,0,0,12.17,2.87c4.74-.32,7.94-3.18,12.31-4.24,4.79-1.17,9.69,2.65,14,4.31,3.87,1.5,7.83,2.07,11.75.42,5.13-2.15,8.17-6.47,14.14-3.81,4.15,1.84,7.62,4.45,12.4,3.92,3.77-.42,3.81-6.38,0-6-4.27.47-7.52-2.48-11.31-4a12.41,12.41,0,0,0-9.87,0c-4.26,1.82-7.39,5.67-12.41,4.73-3.93-.73-7.42-3.29-11.16-4.62a14.76,14.76,0,0,0-10.47-.23c-5.23,2-8.9,4.66-14.84,3-4.34-1.18-7.43-5.08-12.09-5.32-3.51-.19-6.63,1.49-9.62,3.1-4.66,2.53-7.79,3.4-12.71.81-3.3-1.74-6.39-3.94-10.19-4.39-9.15-1.09-14.07,11.68-23.54,6.39-3.35-1.86-5.39-5.26-9.33-6.16a13.06,13.06,0,0,0-8.65,1.44c-3.39,1.66-6.34,4.4-10,5.59-4.52,1.49-8.11-1.41-11.9-3.42-3.27-1.73-6.88-3.17-10.64-2.29-4.68,1.09-7.87,6.16-12.79,6.08s-9-3.79-14-4a14,14,0,0,0-6.38,1.3c-2.95,1.3-6.54,4.49-9.94,2.69s-6.4,3.34-3,5.14Z"/></g></g></svg>