<svg xmlns="http://www.w3.org/2000/svg" viewBox="0 0 735.37 700.75"><defs><style>.cls-1{fill:#f32735;}</style></defs><title>Asset 4</title><g id="Layer_2" data-name="Layer 2"><g id="Capa_1" data-name="Capa 1"><path class="cls-1" d="M527.54,642.31c-65.44,27.29-131.87,28.59-176,7.88a50,50,0,0,0,2.83,9.21c19.25,46.16,103.34,55,187.82,19.78S679.49,578,660.24,531.81a50,50,0,0,0-3.83-7.33C639.47,569.88,592.17,615.35,527.54,642.31Z"/><path class="cls-1" d="M468.64,463.91a79.68,79.68,0,0,0,7.71-21.8,7.36,7.36,0,0,0-14.42-2.91c-6.33,31.43-28.85,43-47.1,40.42-10.57-1.48-22.49-8.5-21.29-23.4,1.07-13.34,9.11-23.05,23.85-28.86a79.65,79.65,0,0,1,24.28-5.06,7.35,7.35,0,0,0-.28-14.7,84,84,0,0,0-18.21,2.48c-1.48-12.4-3.95-21.08-8.25-29.22a7.35,7.35,0,0,0-13,6.86c3.74,7.08,5.8,15,7,27.27-15,6.85-28.39,19.19-30.07,40.05-1.43,17.81,9.49,32.46,27.11,37.62A119.15,119.15,0,0,0,372.28,517c-.11.14-.18.24-.29.37-10.78,12.41-17,23.17-20.63,31.39.1.11-3.66,11-4.95,17.08a7.34,7.34,0,0,0,4.27,8.29c1,.42,11.4,4.61,26.66,1.82,0,0,11.78-1.35,26.3-11a94.11,94.11,0,0,0,8.61-6.48c21.52,20.78,55,33.21,88.12,18a80.61,80.61,0,0,0,7.18-3.73c26.6-15.55,32.19-44.18,30.32-68.26.79-.33,1.59-.65,2.34-1C563.57,492.8,569.55,475,570,473.63a7.37,7.37,0,0,0-3.49-8.65C527.52,443.71,490.52,453.76,468.64,463.91Zm-16.89,41.28A206.85,206.85,0,0,0,495,511.41c-20.5,19.75-46.18,25.46-63.72,26.81A213.91,213.91,0,0,0,451.75,505.19Zm71.73,8.06c.14,21.93-7.72,37.68-23.35,46.81-26.15,15.29-52.94,8.38-72.09-7.13,22.78-1.28,61.31-8.89,87.37-42.53,2.76-.38,5.39-.83,7.89-1.37C523.38,510.42,523.47,511.81,523.48,513.25Z"/><path class="cls-1" d="M467.52,387.46c14.32-29.47,40.32-22.08,43.28-21.13a7.36,7.36,0,0,0,9.28-4.64,7.15,7.15,0,0,0,.21-1.71,7.26,7.26,0,0,0-4.84-7.6,49.81,49.81,0,0,0-22.87-1.54c-13.5,2.15-28.52,10.1-38.29,30.2a7.35,7.35,0,0,0,13.23,6.42Z"/><path class="cls-1" d="M524.86,306.09c-24.63-6.76-51.63-.89-77.88,16.22a166.77,166.77,0,0,0-20.6,15.74,15.07,15.07,0,0,0-2,23.79c2.33,2.05,10.72,8,21.22-1.54a128.53,128.53,0,0,1,27.28-19.37c15.54-8,30.49-10.24,44.18-6.49a14.7,14.7,0,1,0,7.78-28.35Z"/><path class="cls-1" d="M373.83,426.54c-31-10.56-44.06,13.11-45.47,15.89a7.34,7.34,0,0,1-9.82,3.32,6.73,6.73,0,0,1-1.37-1.05,7.26,7.26,0,0,1-2-8.79,49.74,49.74,0,0,1,15-17.33c11-8.08,27.25-13.17,48.4-6a7.35,7.35,0,0,1-4.74,13.92Z"/><path class="cls-1" d="M275.66,410c12.53-22.25,35.7-37.3,66.32-43.92a165.73,165.73,0,0,1,25.69-3.56,14.61,14.61,0,0,1,5.79-.14A14.78,14.78,0,0,1,386,377.87c-.19,3.09-1.89,13.23-16,14a128.25,128.25,0,0,0-33,5.76c-16.59,5.44-28.73,14.46-35.69,26.83A14.71,14.71,0,1,1,275.66,410Z"/><path class="cls-1" d="M688.11,85.37c-49.8-20.08-126.35,11.3-187.39,39L421,27.53c-3.33-4.48-35.15-44.38-91.82-19.32C277.35,31.14,267.57,34,267.29,34.08l-1.07.29-.88.51c-.36.2-9.28,5.13-62,25.83l-2.26.92c-55.25,23-49.44,72.47-48.61,77.92l12.7,124.77C102.49,288.23,26.34,320.53,5.57,370c-8,19.13-7.38,39.5,1.92,60.55,16.39,37.12,60.3,59.75,127,65.46,22.64,1.94,51.54.5,74-1.31a48.57,48.57,0,0,0,51.16,18.52A150.63,150.63,0,0,0,272.93,588c19.79,42.52,58.23,73.15,108.23,86.25,46.31,12.13,97.43,7.83,145.05-12q4.75-2,9.46-4.17c50.24-23.39,90-61.67,111.88-107.79,22.17-46.7,23.48-95.83,3.69-138.35A148.33,148.33,0,0,0,616,364.41a48.59,48.59,0,0,0,21.68-48.72l.8-.7c1.72-1.56,3.47-3.06,5.19-4.65,1-.88,1.94-1.74,3-2.68q8.88-8.28,17.62-17.06c7.46-7.58,15.18-15.9,22.75-25,42.86-51.4,57.68-98.53,42.84-136.3C721.36,107.92,707.34,93.13,688.11,85.37ZM535.22,214.62c12.09,0,19.64,2,22.46,5.46a7.9,7.9,0,0,1,1.22,6c-.44,3.2-2.72,9.33-12.28,17.67Zm-367.64-76.8-.1-.67c-.33-1.72-7.48-41.87,39.43-61.44l2-.79c46.62-18.29,59.86-24.6,63.25-26.36,3.63-1.17,17.44-6.14,63.24-26.39.64-.29,1.28-.56,1.91-.83,46.56-19.42,70.44,13.79,71.43,15.21l62.84,76.36c-47.78,4-138.79,41-150.45,45.77l-5.21,2.17c-11.6,4.9-101.9,43.54-138.35,74.68ZM179.51,255c18.26-24.08,108.23-65.71,142.28-80.08l5.14-2.15C361.13,158.69,454,124.05,484,128l2.37,2.88-2.52,1.15c-23,10.57-43.7,20.14-61.82,28.53-46.08,21.35-76.53,35.46-85.73,37.9l-.5.13-2.29,1c-8.19,4.82-39.65,16.52-87.24,34.25-18.71,7-40.05,14.91-63.78,23.85l-2.58,1Zm13.56,117.4,0-.54c-.6-5.56,3.75-12.49,11.63-20.23l13,29.29c-12.66.92-18.62-1.77-21.2-3.72A8.23,8.23,0,0,1,193.07,372.41Zm26.37,105.68a30.63,30.63,0,0,1,28.22-42.42l16.06,52.79-1.2,4.65a30,30,0,0,1-3,1.46A30.66,30.66,0,0,1,219.44,478.09Zm412,64.48c-20.12,42.38-56.81,77.64-103.29,99.27s-97.09,27-142.47,15.12c-44.77-11.73-79.08-38.91-96.59-76.53-11.38-24.47-14.79-52.38-9.84-80.76l3-11.62L268.71,443.6c-4.72-38.06-11.19-55.53-17.24-62.8,20.84-14.47,54.25-39.23,79.15-65.17,21.46.44,54-5.68,87.3-37.11,36.33.77,78.29-5.67,103.61-10.36.61,6.31,7,14.38,18.28,28.08l37.53,62.3,2,1.15c25,14.5,44.31,35.14,55.74,59.71C652.58,457,651.29,500.76,631.44,542.57ZM601.62,351.88l-.91.35q-5.06-3.56-10.44-6.79l-25.21-41.83.93.75a30.63,30.63,0,1,1,35.63,47.52Z"/></g></g></svg>